<?xml version="1.0" encoding="UTF-8"?>
<svg width="18px" height="18px" viewBox="0 0 18 18" version="1.1" xmlns="http://www.w3.org/2000/svg" xmlns:xlink="http://www.w3.org/1999/xlink">
    <!-- Generator: sketchtool 51.2 (57519) - http://www.bohemiancoding.com/sketch -->
    <title>6F3668C8-3ECB-4D0B-8F2C-8AD9C4CF6E8C</title>
    <desc>Created with sketchtool.</desc>
    <defs></defs>
    <g id="Main-Page" stroke="none" stroke-width="1" fill="none" fill-rule="evenodd">
        <g id="Main-Page-(Search-Preview)" transform="translate(-935.000000, -47.000000)" fill="#FFFFFF" fill-rule="nonzero">
            <g id="Group" transform="translate(924.000000, 36.000000)">
                <path d="M23.864494,22.3207547 L23.051458,22.3207547 L22.7632933,22.0428816 C23.7718696,20.8696398 24.3790738,19.3464837 24.3790738,17.6895369 C24.3790738,13.9948542 21.3842196,11 17.6895369,11 C13.9948542,11 11,13.9948542 11,17.6895369 C11,21.3842196 13.9948542,24.3790738 17.6895369,24.3790738 C19.3464837,24.3790738 20.8696398,23.7718696 22.0428816,22.7632933 L22.3207547,23.051458 L22.3207547,23.864494 L27.4665523,29 L29,27.4665523 L23.864494,22.3207547 Z M17.6895369,22.3207547 C15.1269297,22.3207547 13.058319,20.2521441 13.058319,17.6895369 C13.058319,15.1269297 15.1269297,13.058319 17.6895369,13.058319 C20.2521441,13.058319 22.3207547,15.1269297 22.3207547,17.6895369 C22.3207547,20.2521441 20.2521441,22.3207547 17.6895369,22.3207547 Z" id="icon-search"></path>
            </g>
        </g>
    </g>
</svg>