<?xml version="1.0" encoding="utf-8"?>
<!-- Generator: Adobe Illustrator 23.0.3, SVG Export Plug-In . SVG Version: 6.00 Build 0)  -->
<svg version="1.1" id="Layer_1" xmlns:inkpad="http://taptrix.com/inkpad/svg_extensions"
	 xmlns="http://www.w3.org/2000/svg" xmlns:xlink="http://www.w3.org/1999/xlink" x="0px" y="0px" viewBox="0 0 701 121"
	 style="enable-background:new 0 0 701 121;" xml:space="preserve">
<style type="text/css">
	.st0{fill:#FFFFFF;}
	.st1{fill:#54C3BB;}
	.st2{fill:#419B96;}
	.st3{fill:#ED1C24;}
	.st4{fill:#C4161C;}
	.st5{fill:#A70E13;}
	.st6{fill:#4D4D4E;}
	.st7{fill:#8C8C8C;}
</style>
<rect x="0" y="0" class="st0" width="701" height="121"/>
<g id="g10" inkpad:layerName="g10">
	<g>
		<path class="st1" d="M159.8,38.9c10.4-10.4,28.1-12.1,40.2,0c5.4,5.4,8.1,12.5,8.1,19.8v0.5c0,7.3-2.7,14.4-8.1,19.8
			c-12.1,12.1-29.7,10.4-40.2,0c-14.1-14.1-20.1-20-20.1-20S145.6,53,159.8,38.9z M99.2,58.9c0,0,12,11.9,40.4,40.2
			c20.9,20.9,56.4,24.3,80.7,0c10.8-10.8,16.2-25,16.2-39.7v-1c0-14.7-5.4-28.9-16.2-39.7c-24.3-24.3-59.8-20.9-80.7,0
			C111.2,47,99.2,58.9,99.2,58.9L99.2,58.9"/>
		<path class="st2" d="M139.7,58.9c0,0,6,5.9,20.1,20c10.4,10.4,28.1,12.1,40.2,0c5.4-5.4,8.1-12.5,8.1-19.8v-0.3h28.5v0.5
			c0,14.7-5.4,28.9-16.2,39.7c-24.3,24.3-59.8,20.9-80.7,0c-28.4-28.3-40.4-40.2-40.4-40.2L139.7,58.9"/>
		<path class="st3" d="M99.2,58.9c0,0-6,5.9-20.1,20C68.7,89.3,51.1,91,38.9,79c-5.4-5.4-8.1-12.5-8.1-19.8v-0.5
			c0-7.3,2.7-14.4,8.1-19.8c12.1-12.1,29.7-10.4,40.2,0C93.2,53,99.2,58.9,99.2,58.9z M139.7,58.9L139.7,58.9c0,0-12-11.9-40.4-40.2
			c-20.9-20.9-56.4-24.3-80.7,0C7.7,29.5,2.4,43.8,2.4,58.4v1c0,14.7,5.4,28.9,16.2,39.7c24.3,24.3,59.8,20.9,80.7,0
			C127.7,70.9,139.7,58.9,139.7,58.9"/>
		<path class="st4" d="M99.2,58.9c0,0-6,5.9-20.1,20C68.7,89.3,51.1,91,38.9,79c-5.4-5.4-8.1-12.5-8.1-19.8v-0.3H2.4v0.5
			c0,14.7,5.4,28.9,16.2,39.7c24.3,24.3,59.8,20.9,80.7,0c28.4-28.3,40.4-40.2,40.4-40.2H99.2"/>
		<path class="st5" d="M139.7,58.9L139.7,58.9H99.2c0,0,6.2,6.2,20.2,20.2C133.5,65.1,139.7,58.9,139.7,58.9"/>
		<path class="st6" d="M278.5,104.3v-9.2c-1.3-1.4-2.7-2.2-4.5-2.2c-2.8,0-4.2,2.3-4.2,6.5c0,4.3,1.4,7,4.2,7
			C275.8,106.4,277.1,105.8,278.5,104.3z M263.7,99.4c0-7.4,3.4-11.2,8.5-11.2c2.4,0,4.6,1.1,6.3,2.9V79.9h6.1v30.6h-5.4l-0.4-2.6
			c-1.7,1.8-3.8,3.1-6.7,3.1C267.2,111.1,263.7,107.1,263.7,99.4"/>
		<path class="st6" d="M289.3,88.7h6.1v14.5c0,1.9,0.7,3.2,2.8,3.2c1.8,0,3.4-0.9,4.7-2.5V88.7h6.1v21.8h-5.7l-0.3-2.5
			c-1.6,1.6-4,3-6.6,3c-5,0-7-3-7-8V88.7"/>
		<path class="st6" d="M324.7,104.5c2.1,1.2,4.5,1.9,6.7,1.9c2,0,3.3-0.6,3.3-2c0-3.6-11.8-1.2-11.8-9.4c0-4.5,4-6.8,8.7-6.8
			c2.4,0,5.1,0.5,8.2,1.9l-2.2,4.2c-2.1-1-4.5-1.5-5.9-1.5c-1.8,0-2.9,0.6-2.9,1.9c0,3.5,11.7,1,11.7,9.3c0,4.5-3.8,7-9,7
			c-3.3,0-6.4-0.9-9.2-2.4L324.7,104.5"/>
		<path class="st6" d="M351.8,106.8c1.8,0,3.1-0.8,4.1-1.9v-4.1c-3.4,0.2-6.6,1.1-6.6,3.7C349.3,105.9,350.3,106.8,351.8,106.8z
			 M355.9,97.5v-1.9c0-1.6-0.9-2.5-3-2.5c-2.1,0-4.3,0.8-7,2.2l-2.1-4.5c3-1.5,6.4-2.5,9.4-2.5c6.3,0,8.8,3.1,8.8,7.6v9.1
			c0,1.2,0.7,1.7,1.8,1.7v4.2c-4.2,0-5.9-0.6-7.2-2.7c-1.8,1.9-3.8,3.1-6.8,3.1c-3.8,0-6.5-2.4-6.5-5.8
			C343.3,100.5,347.7,98,355.9,97.5"/>
		<path class="st6" d="M367.3,88.7h5.8l0.3,2.5c1.6-1.7,3.9-3,6.6-3c4.9,0,7,3,7,7.9v14.5h-6.1V96c0-1.9-0.8-3.2-2.8-3.2
			c-1.8,0-3.3,0.9-4.6,2.5v15.3h-6.1V88.7"/>
		<path class="st6" d="M403.9,96.2c0-2.4-1.5-4-3.7-4c-2.1,0-3.6,1.6-3.6,4c0,2.4,1.5,3.9,3.6,3.9
			C402.5,100.2,403.9,98.6,403.9,96.2z M396.8,110.9c-0.9,0.5-1.3,1.3-1.3,2.3c0,1.5,1.5,2.2,5.3,2.2c4,0,5.7-0.6,5.7-2
			c0-1.4-1.2-1.7-5.3-1.9C399.5,111.3,398.1,111.2,396.8,110.9z M392.9,108.9c-0.9-0.9-1.3-1.9-1.3-3c0-1.5,0.9-2.8,2.3-3.6
			c-1.9-1.4-3.2-3.4-3.2-6.1c0-4.8,4.1-8,9.5-8c2.4,0,4.6,0.7,6.2,1.8c1.6-1.1,3.3-1.7,6.2-1.7l0,3.9c-1.5,0-2.7,0.1-3.9,0.4
			c0.6,1.1,0.9,2.2,0.9,3.5c0,5.2-4.6,8-9.4,8c-1.1,0-2.3-0.2-3.3-0.4c-0.5,0.3-0.8,0.7-0.8,1.2c0,1,1.2,1.4,5.9,1.6
			c6.5,0.2,10.1,2,10.1,6.1c0,4-3.5,6.4-11.2,6.4c-6.9,0-11-1.9-11-5.7C389.8,111.4,391,110,392.9,108.9"/>
		<path class="st6" d="M274.8,50.8c2.6,0,5.4,0.8,7.8,2.7l-3.1,3.9c-1.2-1-2.7-1.7-4.6-1.7c-2.8,0-5.1,2.2-5.1,6.4
			c0,4.3,2.2,6.6,5.1,6.6c2,0,3.3-0.7,4.6-1.8l3.3,3.6c-2.4,2.1-4.9,3.2-8.1,3.2c-6.4,0-11.1-4.3-11.1-11.6
			C263.7,55.1,268.4,50.8,274.8,50.8"/>
		<path class="st6" d="M293.7,69.3c1.8,0,3.1-0.8,4.1-1.9v-4.1c-3.4,0.2-6.6,1.1-6.6,3.7C291.2,68.4,292.2,69.3,293.7,69.3z
			 M297.8,60v-1.9c0-1.6-0.9-2.5-3-2.5c-2.1,0-4.3,0.8-7,2.2l-2.1-4.5c3-1.5,6.4-2.5,9.4-2.5c6.3,0,8.8,3.1,8.8,7.6v9.1
			c0,1.2,0.7,1.7,1.8,1.7v4.2c-4.2,0-5.9-0.6-7.2-2.7c-1.8,1.9-3.8,3.1-6.8,3.1c-3.8,0-6.5-2.4-6.5-5.8
			C285.2,63.1,289.6,60.6,297.8,60"/>
		<path class="st6" d="M309.2,51.3h5.8l0.3,2.5c1.6-1.7,3.9-3,6.6-3c4.9,0,7,3,7,7.9v14.5h-6.1V58.6c0-1.9-0.8-3.2-2.8-3.2
			c-1.8,0-3.3,0.9-4.6,2.5v15.3h-6.1V51.3"/>
		<path class="st6" d="M341.1,69.3c1.8,0,3.1-0.8,4.1-1.9v-4.1c-3.4,0.2-6.6,1.1-6.6,3.7C338.6,68.4,339.6,69.3,341.1,69.3z
			 M345.1,60v-1.9c0-1.6-0.9-2.5-3-2.5c-2.1,0-4.3,0.8-7,2.2l-2.1-4.5c3-1.5,6.4-2.5,9.4-2.5c6.3,0,8.8,3.1,8.8,7.6v9.1
			c0,1.2,0.6,1.7,1.8,1.7v4.2c-4.2,0-5.9-0.6-7.2-2.7c-1.8,1.9-3.8,3.1-6.8,3.1c-3.8,0-6.5-2.4-6.5-5.8
			C332.5,63.1,336.9,60.6,345.1,60"/>
		<path class="st6" d="M370.1,66.9v-9.2c-1.3-1.4-2.7-2.2-4.5-2.2c-2.8,0-4.2,2.3-4.2,6.5c0,4.3,1.4,7,4.2,7
			C367.4,69,368.8,68.4,370.1,66.9z M355.4,62c0-7.4,3.4-11.2,8.5-11.2c2.4,0,4.6,1.1,6.3,2.9V42.5h6.1v30.6h-5.4l-0.4-2.6
			c-1.7,1.8-3.8,3.1-6.7,3.1C358.8,73.7,355.4,69.7,355.4,62"/>
		<path class="st6" d="M397.4,60h8.7c0-2.7-1.1-4.8-3.9-4.8C399.8,55.2,397.9,56.8,397.4,60z M402,50.8c6.3,0,9.8,4.1,9.8,10
			c0,0.9-0.1,2-0.2,2.6h-14.3c0.3,3.7,2,5.4,5.3,5.4c2.2,0,4.2-0.7,6-1.9l2.6,3.8c-2.7,1.9-5.8,2.9-9.1,2.9c-6.4,0-11-4.3-11-11.6
			C391.1,55.1,395.9,50.8,402,50.8"/>
		<path class="st6" d="M415.7,51.3h5.8l0.3,2.5c1.6-1.7,3.9-3,6.6-3c4.9,0,7,3,7,7.9v14.5h-6.1V58.6c0-1.9-0.8-3.2-2.8-3.2
			c-1.8,0-3.3,0.9-4.6,2.5v15.3h-6.1V51.3"/>
		<path class="st6" d="M440.1,51.3h5.8l0.3,2.5c1.6-1.7,3.9-3,6.6-3c4.9,0,7,3,7,7.9v14.5h-6.1V58.6c0-1.9-0.8-3.2-2.8-3.2
			c-1.8,0-3.3,0.9-4.6,2.5v15.3h-6.1V51.3"/>
		<path class="st6" d="M469.8,60h8.7c0-2.7-1.1-4.8-3.9-4.8C472.2,55.2,470.3,56.8,469.8,60z M474.4,50.8c6.3,0,9.8,4.1,9.8,10
			c0,0.9-0.1,2-0.2,2.6h-14.3c0.3,3.7,2,5.4,5.3,5.4c2.2,0,4.2-0.7,6-1.9l2.6,3.8c-2.7,1.9-5.8,2.9-9.1,2.9c-6.4,0-11-4.3-11-11.6
			C463.5,55.1,468.3,50.8,474.4,50.8"/>
		<path class="st6" d="M381.1,42.5h6.1v5.2h-6.1V42.5"/>
		<path class="st6" d="M381.1,51.3h6.1v21.8h-6.1V51.3"/>
		<path class="st6" d="M266.7,28.3c2.5,1.5,5.5,2.6,8.4,2.6c3.1,0,4.7-1.3,4.7-3.1c0-5.3-15.4-1.7-15.4-12.5c0-4.7,3.8-8.5,10.5-8.5
			c3.7,0,7,0.9,10.2,2.4l-2.3,4.8c-2.5-1.3-5.2-1.9-7.7-1.9c-2.7,0-4.4,1.3-4.4,3c0,5.2,15.4,1.5,15.4,12.5c0,4.8-3.7,8.6-11,8.6
			c-4.3,0-8.6-1.5-11.4-3.2L266.7,28.3"/>
		<path class="st6" d="M300.1,31.7c3.1,0,4.8-2.8,4.8-7c0-4-1.9-6.7-4.8-6.7c-3,0-4.9,2.6-4.9,6.7C295.2,28.9,296.9,31.7,300.1,31.7
			z M300.1,13.4c6.3,0,11,4.5,11,11.2c0,7.2-4.4,11.7-11,11.7c-6.6,0-11-4.5-11-11.7C289.1,17.9,293.8,13.4,300.1,13.4"/>
		<path class="st6" d="M325,13.4c2.6,0,5.4,0.8,7.8,2.7l-3.1,3.9c-1.2-1-2.7-1.7-4.6-1.7c-2.8,0-5.1,2.2-5.1,6.4
			c0,4.3,2.2,6.6,5.1,6.6c2,0,3.3-0.6,4.6-1.8l3.3,3.6c-2.4,2.1-4.9,3.2-8.1,3.2c-6.4,0-11.1-4.3-11.1-11.6
			C313.8,17.7,318.6,13.4,325,13.4"/>
		<path class="st6" d="M359.1,4.1l4,2.7l-5.5,4.9h-3.7L359.1,4.1z M352.2,22.5h8.7c0-2.7-1.1-4.8-3.9-4.8
			C354.7,17.7,352.8,19.4,352.2,22.5z M356.9,13.4c6.3,0,9.8,4.1,9.8,10c0,0.9-0.1,2-0.2,2.6h-14.3c0.3,3.7,2,5.4,5.3,5.4
			c2.2,0,4.2-0.7,6-1.9l2.6,3.8c-2.7,1.9-5.8,2.9-9.1,2.9c-6.4,0-11-4.3-11-11.6C345.9,17.7,350.8,13.4,356.9,13.4"/>
		<path class="st6" d="M372,18.2h-3.5v-4.3h3.5V8.5h6.1v5.4h6v4.3h-6v10.8c0,1.6,0.7,2.4,2,2.4c1.1,0,2.1-0.4,3-1l2.2,3.7
			c-1.7,1.3-4,2.2-6.4,2.2c-4.6,0-6.8-2.2-6.8-7.1V18.2"/>
		<path class="st6" d="M399.4,4.1l4,2.7l-5.5,4.9h-3.7L399.4,4.1z M392.5,22.5h8.7c0-2.7-1.1-4.8-3.9-4.8
			C395,17.7,393.1,19.4,392.5,22.5z M397.2,13.4c6.3,0,9.8,4.1,9.8,10c0,0.9-0.1,2-0.2,2.6h-14.3c0.3,3.7,2,5.4,5.3,5.4
			c2.2,0,4.2-0.7,6-1.9l2.6,3.8c-2.7,1.9-5.8,2.9-9.1,2.9c-6.4,0-11-4.3-11-11.6C386.2,17.7,391.1,13.4,397.2,13.4"/>
		<path class="st6" d="M335.9,5.1h6.1v5.2h-6.1V5.1"/>
		<path class="st6" d="M335.9,13.9h6.1v21.8h-6.1V13.9"/>
		<path class="st7" d="M513.5,23.3c1.1,0.7,2.5,1.2,3.8,1.2c1.4,0,2.1-0.6,2.1-1.4c0-2.4-6.9-0.8-6.9-5.6c0-2.1,1.7-3.8,4.7-3.8
			c1.7,0,3.2,0.4,4.6,1.1l-1,2.2c-1.1-0.6-2.3-0.8-3.4-0.8c-1.2,0-1.9,0.6-1.9,1.3c0,2.3,6.9,0.7,6.9,5.6c0,2.1-1.6,3.8-4.9,3.8
			c-1.9,0-3.9-0.7-5.1-1.4L513.5,23.3"/>
		<path class="st7" d="M528,22.1h3.5l-1.7-5.2h0L528,22.1z M528.2,13.9h3.2l4.6,12.7h-3l-0.8-2.4h-4.9l-0.8,2.4h-3L528.2,13.9"/>
		<path class="st7" d="M538,13.9h2.6l5.7,8.3v-8.3h2.6v12.7h-2.6l-5.7-8.3v8.3H538V13.9"/>
		<path class="st7" d="M558.2,13.6c1.9,0,3.4,0.7,4.7,1.6l-1.4,1.9c-0.9-0.7-2-1.1-3.2-1.1c-2.4,0-3.9,1.7-3.9,4.2
			c0,2.6,1.5,4.3,3.9,4.3c0.9,0,1.6-0.2,2.2-0.5v-2.5h-2.9v-1.9h5.4v5.8c-1.3,0.9-2.9,1.5-4.8,1.5c-4,0-6.6-2.8-6.6-6.7
			C551.5,16.5,554.1,13.6,558.2,13.6"/>
		<path class="st7" d="M518.1,40.8c1.5,0,2.2-0.8,2.2-1.9c0-1.1-0.7-1.9-2.2-1.9h-2.6v3.7H518.1z M512.8,34.9h5.3c3.7,0,4.9,2,4.9,4
			c0,2-1.3,4.1-4.9,4.1h-2.6v4.6h-2.8V34.9"/>
		<path class="st7" d="M525.3,34.9h2.8v10.3h6.3v2.4h-9.1V34.9"/>
		<path class="st7" d="M540.6,43.1h3.5l-1.7-5.2h0L540.6,43.1z M540.8,34.9h3.2l4.6,12.7h-3l-0.8-2.4h-4.9l-0.8,2.4h-3L540.8,34.9"
			/>
		<path class="st7" d="M551.4,44.2c1.1,0.7,2.5,1.2,3.8,1.2c1.4,0,2.1-0.6,2.1-1.4c0-2.4-6.9-0.8-6.9-5.6c0-2.1,1.7-3.8,4.7-3.8
			c1.7,0,3.2,0.4,4.6,1.1l-1,2.2c-1.1-0.6-2.3-0.8-3.4-0.8c-1.2,0-1.9,0.6-1.9,1.3c0,2.3,6.9,0.7,6.9,5.6c0,2.1-1.6,3.8-4.9,3.8
			c-1.9,0-3.9-0.7-5.1-1.4L551.4,44.2"/>
		<path class="st7" d="M562.7,34.9h2.8l3.8,5.4l3.9-5.4h2.7v12.7h-2.6v-8.8l-4,5.5l-4-5.5v8.8h-2.6V34.9"/>
		<path class="st7" d="M582.4,43.1h3.5l-1.7-5.2h0L582.4,43.1z M582.6,34.9h3.2l4.6,12.7h-3l-0.8-2.4h-4.9l-0.8,2.4h-3L582.6,34.9"
			/>
		<path class="st7" d="M518.9,55.6c1.8,0,3.3,0.6,4.6,1.6l-1.5,1.9c-0.9-0.7-1.8-1.2-3.1-1.2c-2.4,0-3.9,1.6-3.9,4.2
			c0,2.6,1.5,4.3,3.9,4.3c1.3,0,2.3-0.5,3.2-1.3l1.6,1.7c-1.4,1.3-3,1.9-4.9,1.9c-3.9,0-6.6-2.8-6.6-6.7
			C512.3,58.4,515,55.6,518.9,55.6"/>
		<path class="st7" d="M525.7,55.9h9.3v2.4h-6.5v2.8h5.8v2.1h-5.8v3h6.6v2.4h-9.4V55.9"/>
		<path class="st7" d="M537.7,55.9h2.8v10.3h6.3v2.4h-9.1V55.9"/>
		<path class="st7" d="M548.7,55.9h2.8v10.3h6.3v2.4h-9.1V55.9"/>
		<path class="st7" d="M559.5,55.9h2.8v7.9c0,1.7,1.1,2.7,2.6,2.7c1.5,0,2.6-1,2.6-2.7v-7.9h2.8v7.9c0,3.4-2.2,5.1-5.4,5.1
			c-3.2,0-5.4-1.7-5.4-5.1V55.9"/>
		<path class="st7" d="M573.2,55.9h2.8v10.3h6.3v2.4h-9.1V55.9"/>
		<path class="st7" d="M584.2,55.9h9.3v2.4h-6.5v2.8h5.8v2.1h-5.8v3h6.6v2.4h-9.4V55.9"/>
		<path class="st7" d="M596.7,65.2c1.1,0.7,2.5,1.2,3.8,1.2c1.4,0,2.1-0.6,2.1-1.4c0-2.4-6.9-0.8-6.9-5.6c0-2.1,1.7-3.8,4.7-3.8
			c1.7,0,3.2,0.4,4.6,1.1l-1,2.2c-1.1-0.6-2.3-0.8-3.4-0.8c-1.2,0-1.9,0.6-1.9,1.3c0,2.3,6.9,0.7,6.9,5.6c0,2.1-1.6,3.8-4.9,3.8
			c-1.9,0-3.9-0.7-5.1-1.4L596.7,65.2"/>
		<path class="st7" d="M613.1,65.2c1.1,0.7,2.5,1.2,3.8,1.2c1.4,0,2.1-0.6,2.1-1.4c0-2.4-6.9-0.8-6.9-5.6c0-2.1,1.7-3.8,4.7-3.8
			c1.7,0,3.2,0.4,4.6,1.1l-1,2.2c-1.1-0.6-2.3-0.8-3.4-0.8c-1.2,0-1.9,0.6-1.9,1.3c0,2.3,6.9,0.7,6.9,5.6c0,2.1-1.6,3.8-4.9,3.8
			c-1.9,0-3.9-0.7-5.1-1.4L613.1,65.2"/>
		<path class="st7" d="M630,66.5c2.2,0,3.8-1.7,3.8-4.3c0-2.5-1.5-4.2-3.8-4.2c-2.2,0-3.8,1.7-3.8,4.2
			C626.2,64.8,627.8,66.5,630,66.5z M630,55.6c3.9,0,6.6,2.7,6.6,6.6c0,3.8-2.7,6.6-6.6,6.6c-3.9,0-6.6-2.8-6.6-6.6
			C623.4,58.4,626.1,55.6,630,55.6"/>
		<path class="st7" d="M638.9,55.9h2.8v7.9c0,1.7,1.1,2.7,2.6,2.7c1.5,0,2.6-1,2.6-2.7v-7.9h2.8v7.9c0,3.4-2.2,5.1-5.4,5.1
			c-3.2,0-5.4-1.7-5.4-5.1V55.9"/>
		<path class="st7" d="M658.5,55.6c1.8,0,3.3,0.6,4.6,1.6l-1.5,1.9c-0.9-0.7-1.8-1.2-3.1-1.2c-2.4,0-3.9,1.6-3.9,4.2
			c0,2.6,1.5,4.3,3.9,4.3c1.3,0,2.3-0.5,3.2-1.3l1.6,1.7c-1.4,1.3-3,1.9-4.9,1.9c-3.9,0-6.6-2.8-6.6-6.7
			C651.9,58.4,654.6,55.6,658.5,55.6"/>
		<path class="st7" d="M665.3,55.9h2.8V61h5v-5.1h2.8v12.7H673v-5.3h-5v5.3h-2.8V55.9"/>
		<path class="st7" d="M678.7,55.9h9.3v2.4h-6.5v2.8h5.8v2.1h-5.8v3h6.6v2.4h-9.4V55.9"/>
		<path class="st7" d="M691.2,65.2c1.1,0.7,2.5,1.2,3.8,1.2c1.4,0,2.1-0.6,2.1-1.4c0-2.4-6.9-0.8-6.9-5.6c0-2.1,1.7-3.8,4.7-3.8
			c1.7,0,3.2,0.4,4.6,1.1l-1,2.2c-1.1-0.6-2.3-0.8-3.4-0.8c-1.2,0-2,0.6-2,1.3c0,2.3,6.9,0.7,6.9,5.6c0,2.1-1.6,3.8-4.9,3.8
			c-1.9,0-3.9-0.7-5.1-1.4L691.2,65.2"/>
		<path class="st7" d="M518.9,87.5c2.2,0,3.8-1.7,3.8-4.3c0-2.5-1.5-4.2-3.8-4.2c-2.2,0-3.8,1.7-3.8,4.2
			C515.1,85.8,516.7,87.5,518.9,87.5z M518.9,76.6c3.9,0,6.6,2.7,6.6,6.6c0,3.8-2.7,6.6-6.6,6.6c-3.9,0-6.6-2.8-6.6-6.6
			C512.3,79.4,515,76.6,518.9,76.6"/>
		<path class="st7" d="M533.4,82.8c1.5,0,2.2-0.8,2.2-1.9c0-1.1-0.7-1.9-2.2-1.9h-2.8v3.7H533.4z M527.8,76.9h5.6c3.6,0,4.9,2,4.9,4
			c0,1.5-0.7,2.8-2.3,3.5l2.4,5.2h-3l-2-4.7h-2.9v4.7h-2.8V76.9"/>
		<path class="st7" d="M546.8,76.6c1.9,0,3.4,0.7,4.7,1.6l-1.4,1.9c-0.9-0.7-2-1.1-3.2-1.1c-2.4,0-3.9,1.7-3.9,4.2
			c0,2.6,1.5,4.3,3.9,4.3c0.9,0,1.6-0.2,2.2-0.5v-2.5h-2.9v-1.9h5.4v5.8c-1.3,0.9-2.9,1.5-4.8,1.5c-4,0-6.6-2.8-6.6-6.7
			C540.2,79.5,542.8,76.6,546.8,76.6"/>
		<path class="st7" d="M557.6,85.1h3.5l-1.7-5.2h0L557.6,85.1z M557.8,76.9h3.2l4.6,12.7h-3l-0.8-2.4h-4.9l-0.8,2.4h-3L557.8,76.9"
			/>
		<path class="st7" d="M567.3,76.9h2.6l5.7,8.3v-8.3h2.6v12.7h-2.6l-5.7-8.3v8.3h-2.6V76.9"/>
		<path class="st7" d="M581.2,76.9h9.3v2.4h-6.5v2.8h5.8v2.1h-5.8v3h6.6v2.4h-9.4V76.9"/>
		<path class="st7" d="M593.7,86.2c1.1,0.7,2.5,1.2,3.8,1.2c1.4,0,2.1-0.6,2.1-1.4c0-2.4-6.9-0.8-6.9-5.6c0-2.1,1.7-3.8,4.7-3.8
			c1.7,0,3.2,0.4,4.6,1.1l-1,2.2c-1.1-0.6-2.3-0.8-3.4-0.8c-1.2,0-2,0.6-2,1.3c0,2.3,6.9,0.7,6.9,5.6c0,2.1-1.6,3.8-4.9,3.8
			c-1.9,0-3.9-0.7-5.1-1.4L593.7,86.2"/>
		<path class="st7" d="M512.8,97.9h9.3v2.4h-6.5v2.8h5.8v2.1h-5.8v3h6.6v2.4h-9.4V97.9"/>
		<path class="st7" d="M528.4,100.3h-4.2v-2.4h11.2v2.4h-4.2v10.3h-2.7V100.3"/>
		<path class="st7" d="M546.1,100.3h-4.2v-2.4h11.2v2.4h-4.2v10.3h-2.8V100.3"/>
		<path class="st7" d="M555.3,97.9h2.8v12.7h-2.8V97.9"/>
		<path class="st7" d="M561.9,107.2c1.1,0.7,2.5,1.2,3.8,1.2c1.4,0,2.1-0.6,2.1-1.4c0-2.4-6.9-0.8-6.9-5.6c0-2.1,1.7-3.8,4.7-3.8
			c1.7,0,3.1,0.4,4.6,1.1l-1,2.2c-1.1-0.6-2.3-0.8-3.4-0.8c-1.2,0-2,0.6-2,1.3c0,2.3,6.9,0.7,6.9,5.6c0,2.1-1.6,3.8-4.9,3.8
			c-1.9,0-3.9-0.7-5.1-1.4L561.9,107.2"/>
		<path class="st7" d="M573.8,107.2c1.1,0.7,2.5,1.2,3.8,1.2c1.4,0,2.1-0.6,2.1-1.4c0-2.4-6.9-0.8-6.9-5.6c0-2.1,1.7-3.8,4.7-3.8
			c1.7,0,3.2,0.4,4.6,1.1l-1,2.2c-1.1-0.6-2.3-0.8-3.4-0.8c-1.2,0-1.9,0.6-1.9,1.3c0,2.3,6.9,0.7,6.9,5.6c0,2.1-1.6,3.8-4.9,3.8
			c-1.9,0-3.9-0.7-5.1-1.4L573.8,107.2"/>
		<path class="st7" d="M585,97.9h2.8v7.9c0,1.7,1.1,2.7,2.6,2.7c1.5,0,2.6-1,2.6-2.7v-7.9h2.8v7.9c0,3.4-2.2,5.1-5.4,5.1
			c-3.2,0-5.4-1.7-5.4-5.1V97.9"/>
		<path class="st7" d="M599.5,107.2c1.1,0.7,2.5,1.2,3.7,1.2c1.4,0,2.1-0.6,2.1-1.4c0-2.4-6.9-0.8-6.9-5.6c0-2.1,1.7-3.8,4.7-3.8
			c1.7,0,3.2,0.4,4.6,1.1l-1,2.2c-1.1-0.6-2.3-0.8-3.4-0.8c-1.2,0-1.9,0.6-1.9,1.3c0,2.3,6.9,0.7,6.9,5.6c0,2.1-1.6,3.8-4.9,3.8
			c-1.9,0-3.9-0.7-5.1-1.4L599.5,107.2"/>
	</g>
</g>
</svg>
